<svg xmlns="http://www.w3.org/2000/svg" viewBox="0 0 500 500"><g id="freepik--background-simple--inject-97"><path d="M405.37,65.54c-16.32-19.78-36.12-35.75-61.53-42.25C311.54,15,42.6,129.21,17.81,179.54S238.67,484.53,280,482.27,466.28,279.45,477.55,233.62c8.08-32.86-11.61-65.53-26.42-93.44C438.29,116,424.12,88.25,405.37,65.54Z" style="fill:#E5DACF"></path><path d="M405.37,65.54c-16.32-19.78-36.12-35.75-61.53-42.25C311.54,15,42.6,129.21,17.81,179.54S238.67,484.53,280,482.27,466.28,279.45,477.55,233.62c8.08-32.86-11.61-65.53-26.42-93.44C438.29,116,424.12,88.25,405.37,65.54Z" style="fill:#fff;opacity:0.7000000000000001"></path></g><g id="freepik--Character--inject-97"><path d="M225.19,489.81s-38,.42-43.32-2.78c-2.37-1.42-47.41-4.21-72.73-14.69s-24.45-12.66-24.88-15.72,13.5-99,13.5-99l3.24-72A34.62,34.62,0,0,1,90,288c-5.19,0-12.77-5.84-12.77-5.84s-10,.65-13.84.86-14.5-13.62-9.52-32.66,22.71-34.18,22.71-34.18,18.18-1.3,19.91-1.73,7.14-4.54,11.68-6.28,31.58,0,31.58,0S151,208,154.43,209s94.32,31.58,94.32,31.58,21.42,10.6,25.53,14.28,17.3,16.66,19.9,25.31,3.68,22.28,3.68,22.28l3.5,12.73s8.89,5.34,9.95,8.9a40.92,40.92,0,0,1,1.78,7.82c0,1.07,3.56,9.25,3.56,9.25s-11.74-7.47-19.92-6.05S272.55,354,271.84,355.76s-2.49,5.33-2.49,5.33l-11.74,1.42L237,487.34S234,491.93,225.19,489.81Z" style="fill:#E5DACF;stroke:#263238;stroke-linecap:round;stroke-linejoin:round"></path><circle cx="189.93" cy="264.9" r="2.86" style="fill:#fff;stroke:#263238;stroke-linecap:round;stroke-linejoin:round"></circle><circle cx="182.01" cy="289.11" r="2.86" style="fill:#fff;stroke:#263238;stroke-linecap:round;stroke-linejoin:round"></circle><path d="M316.65,341.18s9.88,19.7,5.41,25.66c-2.9,3.87-49.15,1-52.36,1.72s-3.55-10.31-1.06-16.36,12.09-16,25.6-17.78A28.83,28.83,0,0,1,316.65,341.18Z" style="fill:#fff;stroke:#263238;stroke-linecap:round;stroke-linejoin:round"></path><path d="M78.17,257.16s-4,17-7.67,21.31-6.06,3.68-9.3.87-6.93-9.95-6.93-16.23-.43-12.76-.43-12.76Z" style="fill:#263238;stroke:#263238;stroke-linecap:round;stroke-linejoin:round"></path><path d="M202.89,244.72a59.24,59.24,0,0,0,5.41,6.93c4.11,4.76,11,15.36,11,15.36a41.39,41.39,0,0,1,14.28-12.77c9.73-5.41,18.17-14.06,18.17-14.06s-5-8.87-5.19-11.46-1.52-10.82-4.11-14.07-21.42-5-22.07-5.19-63.17,5.41-63.17,5.41,0,19.69,1.74,27a132.18,132.18,0,0,0,4.54,14.71s16-10.17,17.52-10.6S202.89,244.72,202.89,244.72Z" style="fill:#E5DACF;stroke:#263238;stroke-linecap:round;stroke-linejoin:round"></path><path d="M202.89,244.72s10.17-5.84,16.66-8.65a24.16,24.16,0,0,0,9.73-7.57l-9.73-13.2-21.2,29Z" style="fill:#fff;stroke:#263238;stroke-linecap:round;stroke-linejoin:round"></path><polygon points="221.77 219.29 211.6 239.94 199 246.92 221.77 219.29" style="fill:#263238;stroke:#263238;stroke-linecap:round;stroke-linejoin:round"></polygon><path d="M186.23,254s-9.3,26.82-10.6,35.69" style="fill:none;stroke:#263238;stroke-linecap:round;stroke-linejoin:round"></path><path d="M128.76,281.3c.51,6.12.8,10.15.8,10.15" style="fill:none;stroke:#263238;stroke-linecap:round;stroke-linejoin:round"></path><path d="M112.68,213.57s3.9-3.46,8.65,12.33c3,9.85,5.43,32.89,6.87,48.85" style="fill:none;stroke:#263238;stroke-linecap:round;stroke-linejoin:round"></path><path d="M99.49,214.65s6.49-.86,8.87,6.71,2.37,17.52,2.37,17.52" style="fill:none;stroke:#263238;stroke-linecap:round;stroke-linejoin:round"></path><path d="M175.91,300.92c1.13,3.06,2.1,5.5,2.75,6.76" style="fill:none;stroke:#263238;stroke-linecap:round;stroke-linejoin:round"></path><path d="M165.68,270.47s4.71,14.84,8.64,26" style="fill:none;stroke:#263238;stroke-linecap:round;stroke-linejoin:round"></path><line x1="268" y1="281.28" x2="255.12" y2="365" style="fill:none;stroke:#263238;stroke-linecap:round;stroke-linejoin:round"></line><path d="M134.53,109.06a101.47,101.47,0,0,1-10.15,7.66c-7.21,5-6.54,9.69-8.34,14.2s-8.57,16.68-8.57,16.68-3.6,3.84-13.75,12.85-50.94,44-58.38,54.11S19.56,234.84,22.26,240.7s16.91,11.73,25,13.31,30.88,3.15,30.88,3.15a111.06,111.06,0,0,0,2.48-15.1C81.78,231.91,77,222.45,77,222.45s44.41-59.52,45.31-60.64,8.79-4.06,11.05-6.09,13.3-11.95,15.55-14.2,3.16-9.25,2-11.73-4.51-3.38-5-.45a39.23,39.23,0,0,1-1.35,5.64l-8.12,3.61-.22-7,7-5.86s4.73-8.79,3.38-11.27S140.61,104.77,134.53,109.06Z" style="fill:#fff;stroke:#263238;stroke-linecap:round;stroke-linejoin:round"></path><path d="M137.74,94.56s-11.79,7.86-16.59,14" style="fill:none;stroke:#263238;stroke-linecap:round;stroke-linejoin:round"></path><path d="M123.77,97.62s-2.62.43-10,16.16" style="fill:none;stroke:#263238;stroke-linecap:round;stroke-linejoin:round"></path><line x1="77.04" y1="222.45" x2="67.06" y2="236.78" style="fill:none;stroke:#263238;stroke-linecap:round;stroke-linejoin:round"></line><path d="M140.39,155s1.8,14.43,5.63,31.56,2.71,22.77,8.34,33.37,19.62,23.89,23.9,28.4,15.55,4.73,18.71,2.48,21.87-25.25,24.8-31.56,6.53-18.94,6.53-18.94,1.36,7.22,8.34,2.93,14.88-20.06,13.3-26.15S240,176,240,176l-1.58-5.19V157.07a508,508,0,0,1-51.63,1.35c-29.08-.67-46.21-8.79-46.21-8.79Z" style="fill:#fff;stroke:#263238;stroke-linecap:round;stroke-linejoin:round"></path><path d="M172.17,92.37c-.67,0-12.17,6.09-17.13,7a28,28,0,0,1-8.12.45l7.89,5s-7.43-1.12-9.24-.67a20.69,20.69,0,0,0-3.61,1.35l4.74,1.35s-5.64,9.92-6.31,16.46-.91,10.37-.91,10.37l3.39-4.51a42.81,42.81,0,0,1-4.51,11.27c-3.61,6.54-2,20.74-2,21.64s7.66-4.51,7.66-4.51l-2.7,9.47a44.66,44.66,0,0,1,16.45,2.93c9.25,3.38,14.43,1.13,14.43,1.13l-9.24,5.63s5,6.54,20.29,4.29,25-15.78,25-15.78L208,175.56s6.09-7.22,6.54-9.92.68-4.06.68-4.06,3.38,7.21,4.51,8.34l1.12,1.13,2.48-4.29s.23,4.29,1.58,6.32,7.89,10.82,7.89,10.82,1.35-3.61,3.38-5A42.2,42.2,0,0,0,240,176l1.8-6.09,3.16-.22s0-2.26,2.47-9.92,3.84-26.83,1.81-32.92-5.86-14.42-5.86-14.42l9,2s-9.91-12-14.87-13.08-12-.68-12-.68L224,93.28l-2.7,5.41a34.61,34.61,0,0,0-8.8-6.54c-4.73-2.26-20.51-3.83-26.82-3.83S172.17,92.37,172.17,92.37Z" style="fill:#263238;stroke:#263238;stroke-linecap:round;stroke-linejoin:round"></path><path d="M172.17,216.36s-1.13,4.06,3.61,5.86,9.69.23,11.72-3.61" style="fill:none;stroke:#263238;stroke-linecap:round;stroke-linejoin:round"></path><path d="M182.32,232.36s6.76-6.76,14.65-7.66" style="fill:none;stroke:#263238;stroke-linecap:round;stroke-linejoin:round"></path><path d="M200.69,198.55c0,2.12-1.26,3.83-2.82,3.83s-2.82-1.71-2.82-3.83,1.26-3.83,2.82-3.83S200.69,196.43,200.69,198.55Z" style="fill:#263238"></path><path d="M190.16,187.17a72.64,72.64,0,0,1,18.08,6" style="fill:none;stroke:#263238;stroke-linecap:round;stroke-linejoin:round;stroke-width:2px"></path><path d="M155,193.82s7.66-2.93,12.4,3.38" style="fill:none;stroke:#263238;stroke-linecap:round;stroke-linejoin:round;stroke-width:2px"></path><path d="M169,194.94s-6.54-9.92-17.59-7.89" style="fill:none;stroke:#263238;stroke-linecap:round;stroke-linejoin:round;stroke-width:2px"></path><path d="M136.79,105.37s.63-1.22,1.61-1.4,11.31,1.51,11.75,2.85-1.07,4.54-1.42,4.9-5.61-2.32-7-3.21a59.32,59.32,0,0,0-5.43-2.58Z" style="fill:#fff;stroke:#263238;stroke-linecap:round;stroke-linejoin:round"></path><path d="M129.47,113.14s4.57-7.31,7.32-7.77,7.09,4.11,9.6,4.8,4.58,2.75,3.66,5-6.4,4.81-6.4,4.81-5.26-5.72-7.32-6.18-7.09,1.6-7.09,1.6Z" style="fill:#fff;stroke:#263238;stroke-linecap:round;stroke-linejoin:round"></path><path d="M122.8,119s9.25-9.69,11.73-9.91a8,8,0,0,1,4.73,1.35s7.94,5.23,8.39,6.4a3.93,3.93,0,0,1-.54,3.61c-.73.9-2.71,3.16-3.7,4.51s-2.44,4-3.25,4.15-3.43-.18-3.52-2.17a42.24,42.24,0,0,1,.72-6.4s-3.69,8.3-4.15,8.75-1.53,6-1.35,13.17-1.26,11.55-4.24,12.63" style="fill:#fff;stroke:#263238;stroke-linecap:round;stroke-linejoin:round"></path><path d="M133.21,119c1.18,1.53,4.15,1.53,4.15,1.53a8.28,8.28,0,0,1-.36-4.69" style="fill:none;stroke:#263238;stroke-linecap:round;stroke-linejoin:round"></path><path d="M229.08,371.88s-12.41.27-17.94-2.15-9-8-11.41-5.53-1.39,6.57,1.38,8.64,5.19,3.81,5.19,3.81,14.52.69,20,.34a61.61,61.61,0,0,0,8.64-1Z" style="fill:#fff;stroke:#263238;stroke-linecap:round;stroke-linejoin:round"></path><path d="M214.18,384h-9.6l-6.24-2.46a60.3,60.3,0,0,1-2.4,7.43,6.06,6.06,0,0,1-6.08,2.88c-2.56-.32-1.92-.32-1.6-2.88s2.56-13.29,2.56-14.25.32-1.6,2.88-2.56c1.61-.61,26.24.64,26.24.64l9.14-.87,23.82-4.49s30.38-24.32,35.88-25.8c29.05-7.82,34.22,14.7,36,22.52s-12.45,17.07-17.42,19.21-31.62,4.76-31.62,4.76l-16.11,1.63c-3.84,2.88-6.72,4.8-6.72,4.8L247.1,396S235,407.64,230.83,408.28s-8.65,1.92-2.88-3.84,12.48-13.77,12.48-13.77" style="fill:#fff;stroke:#263238;stroke-linecap:round;stroke-linejoin:round"></path><path d="M227.3,380.43s-15.45-6.66-17.92-3.84c-4.85,5.55-14.07,19.16-14.07,22.36s2.05,2.44,4.61,2.44,12-12,12-12L219.3,392" style="fill:#fff;stroke:#263238;stroke-linecap:round;stroke-linejoin:round"></path><path d="M235.63,384s-6.4-1.6-9,.32-16,14.4-15.68,17.93,2.88,3.52,6.72,1.6,12.17-8.33,12.17-8.33a27.86,27.86,0,0,0,6.08.32l5.74-7" style="fill:#fff;stroke:#263238;stroke-linecap:round;stroke-linejoin:round"></path><path d="M281.79,321.87a45.43,45.43,0,0,1,6.41-3.81" style="fill:none;stroke:#263238;stroke-linecap:round;stroke-linejoin:round"></path><path d="M262.38,348.49c1.72-5.71,4.95-14,10.17-19.05a79.3,79.3,0,0,1,6.29-5.42" style="fill:none;stroke:#263238;stroke-linecap:round;stroke-linejoin:round"></path><path d="M260.81,354.69s.25-1.3.78-3.35" style="fill:none;stroke:#263238;stroke-linecap:round;stroke-linejoin:round"></path><path d="M280.26,302c-6.29,8.81-13.9,20.07-14.11,23.18-.36,5.34,9.6-10.31,9.6-10.31" style="fill:none;stroke:#263238;stroke-linecap:round;stroke-linejoin:round"></path><path d="M288.55,290.68s-2.5,3.31-5.84,7.91" style="fill:none;stroke:#263238;stroke-linecap:round;stroke-linejoin:round"></path></g><g id="freepik--Bottle--inject-97"><rect x="342.51" y="322.44" width="35.97" height="37.26" style="fill:#263238;stroke:#263238;stroke-linecap:round;stroke-linejoin:round"></rect><path d="M384.78,480.25H336.22a6.71,6.71,0,0,1-6.71-6.71V376.69a16.38,16.38,0,0,1,8.08-14.1l4.92-2.89h36l5.89,4a16.35,16.35,0,0,1,7.1,13.49v96.31A6.7,6.7,0,0,1,384.78,480.25Z" style="fill:none;stroke:#263238;stroke-linecap:round;stroke-linejoin:round"></path><path d="M382.86,367.34l-1.78-1.22H339.29l-.24.14a15.3,15.3,0,0,0-7.55,13.2v90.66a6.28,6.28,0,0,0,6.27,6.28h45.45a6.28,6.28,0,0,0,6.28-6.28V380A15.31,15.31,0,0,0,382.86,367.34Z" style="fill:#E5DACF"></path><rect x="329.51" y="387.32" width="61.97" height="63.6" style="fill:#fff;stroke:#263238;stroke-linecap:round;stroke-linejoin:round"></rect><rect x="347.33" y="307.66" width="26.34" height="14.78" style="fill:#263238;stroke:#263238;stroke-linecap:round;stroke-linejoin:round"></rect><rect x="351.83" y="285.82" width="17.35" height="21.2" style="fill:#263238;stroke:#263238;stroke-linecap:round;stroke-linejoin:round"></rect><path d="M372.77,409.09l.2.32a10.06,10.06,0,0,0,2.64-.1l.76-.25a11.51,11.51,0,0,0-1.76-.2l-1.81,0a2.53,2.53,0,0,0-2.19-2.85c0-.42.1-1.11.14-1.6a10,10,0,0,0-.06-1.77l-.3.73a10,10,0,0,0-.31,2.61,3.23,3.23,0,0,0-1.87.72,3.16,3.16,0,0,0-1.1,1.74l-.33-.07a2.38,2.38,0,0,0,.41-.27l-.51-1.73s.33-.85.09-1.28a6,6,0,0,1-.4-1.23,2.78,2.78,0,0,1,.82-1,2.14,2.14,0,0,0,.68-.59,12.68,12.68,0,0,0-1.35.46,3,3,0,0,0-1.32,1.56,8.33,8.33,0,0,0,.68,2.22,8.89,8.89,0,0,1,0,1.71,1.72,1.72,0,0,0-1,.08l-.3.2a8.54,8.54,0,0,1-.67-1.42,8.44,8.44,0,0,0-.38-2.29,3,3,0,0,0-1.88-.81,13.85,13.85,0,0,0-1.42.2,2.15,2.15,0,0,0,.88.22,2.77,2.77,0,0,1,1.16.5,6,6,0,0,1,.2,1.28c0,.49.65,1.11.65,1.11l.3,1.69a2.89,2.89,0,0,0-1.3.54,2.15,2.15,0,0,0-.19.22,6.52,6.52,0,0,1-1.17-.61c-.34-.29-1.18-1.41-1.71-1.59a3.08,3.08,0,0,0-2,.52,12.16,12.16,0,0,0-1,1,2.18,2.18,0,0,0,.84-.36,2.78,2.78,0,0,1,1.22-.32,5.58,5.58,0,0,1,.93.9c.29.4,1.2.47,1.2.47l1.09,1c-.17.39-.27.71-.27.71a5.64,5.64,0,0,0-1.77-.67,4,4,0,0,0-.86.24,6.4,6.4,0,0,0-1.9,0,2.32,2.32,0,0,0-1,.86,3.6,3.6,0,0,0-1.9.12,2.13,2.13,0,0,0-.92,1,1.66,1.66,0,0,0-1.41.37,9.19,9.19,0,0,0-1,1.47,1.21,1.21,0,0,0-1.16.55,3.43,3.43,0,0,0-.49,1.41S348,417,348,418v1.71s-1.16.68-1.16,1.29a11.58,11.58,0,0,0,.12,1.41s-.73.79-.61,1.47a10.73,10.73,0,0,0,.25,1.1,2.28,2.28,0,0,0-.31,1.22,6.72,6.72,0,0,0,.18,1s-.3,1.59.49,2a1.61,1.61,0,0,0,1.41.13,2.79,2.79,0,0,0,1,.48,1.8,1.8,0,0,0,1.35-.06,3.47,3.47,0,0,0,1.28.49,4.89,4.89,0,0,0,1.54-.61,8.51,8.51,0,0,0,1.77.18,2.51,2.51,0,0,0,1.1-.73,16.42,16.42,0,0,0,1.84-.18,6.16,6.16,0,0,0,1.22-.49,2.14,2.14,0,0,0,1.29-.43,4.59,4.59,0,0,0,1.22-1.35,3.29,3.29,0,0,0,1-.49,6.31,6.31,0,0,0,.68-1.28,3.34,3.34,0,0,0,1.1-.74,10.31,10.31,0,0,0,.55-2,3.26,3.26,0,0,0,1-1.22,2.93,2.93,0,0,0,.06-1.23,1.67,1.67,0,0,0,.24-.85v-1.17a1.5,1.5,0,0,0,.19-.15l1.08,1.24s.05.9.45,1.2a5.91,5.91,0,0,1,.87,1,2.7,2.7,0,0,1-.34,1.21,2.22,2.22,0,0,0-.38.83s.78-.67,1.05-1a3.09,3.09,0,0,0,.55-2c-.16-.53-1.26-1.39-1.54-1.74a8.74,8.74,0,0,1-.75-1.59c.19-.17.36-.34.48-.47a2.66,2.66,0,0,0,.39-.65v0l1.77.35s.6.68,1.09.68a5.61,5.61,0,0,1,1.28.22,2.87,2.87,0,0,1,.47,1.17,2.15,2.15,0,0,0,.2.89,14.39,14.39,0,0,0,.23-1.42,3,3,0,0,0-.76-1.89,8.18,8.18,0,0,0-2.29-.43,7,7,0,0,1-1.18-.58,1.32,1.32,0,0,0,.33-.4,3,3,0,0,0,.18-1l0,0a6.54,6.54,0,0,1,1.27.08,8.49,8.49,0,0,0,2.2.73,3.07,3.07,0,0,0,1.59-1.28c.18-.37.49-1.35.49-1.35a2.23,2.23,0,0,0-.61.67,2.85,2.85,0,0,1-1,.8,5.56,5.56,0,0,1-1.23-.43c-.42-.24-1.28.06-1.28.06l-1-.33a3.87,3.87,0,0,0,0-.68,3.37,3.37,0,0,0,1.17-.61A3.18,3.18,0,0,0,372.77,409.09Z" style="fill:#263238"></path><path d="M360,397.56a20.62,20.62,0,1,0,20.62,20.62A20.62,20.62,0,0,0,360,397.56Zm16.61,20.62a16.5,16.5,0,0,1-3.36,10L350,404.93a16.58,16.58,0,0,1,26.59,13.25Zm-33.22,0A16.54,16.54,0,0,1,347,407.82l23.33,23.33a16.6,16.6,0,0,1-27-13Z" style="fill:#E5DACF"></path></g><g id="freepik--Comb--inject-97"><path d="M456.06,417.41a43.18,43.18,0,1,0-62.3,0Z" style="fill:#c2c2c2;stroke:#263238;stroke-linecap:round;stroke-linejoin:round"></path><line x1="393.76" y1="417.41" x2="393.76" y2="479.57" style="fill:none;stroke:#263238;stroke-linecap:round;stroke-linejoin:round"></line><line x1="396.72" y1="417.41" x2="396.72" y2="479.57" style="fill:none;stroke:#263238;stroke-linecap:round;stroke-linejoin:round"></line><line x1="399.68" y1="417.41" x2="399.68" y2="479.57" style="fill:none;stroke:#263238;stroke-linecap:round;stroke-linejoin:round"></line><line x1="402.63" y1="417.41" x2="402.63" y2="479.57" style="fill:none;stroke:#263238;stroke-linecap:round;stroke-linejoin:round"></line><line x1="405.59" y1="417.41" x2="405.59" y2="479.57" style="fill:none;stroke:#263238;stroke-linecap:round;stroke-linejoin:round"></line><line x1="408.55" y1="417.41" x2="408.55" y2="479.57" style="fill:none;stroke:#263238;stroke-linecap:round;stroke-linejoin:round"></line><line x1="411.5" y1="417.41" x2="411.5" y2="479.57" style="fill:none;stroke:#263238;stroke-linecap:round;stroke-linejoin:round"></line><line x1="414.46" y1="417.41" x2="414.46" y2="479.57" style="fill:none;stroke:#263238;stroke-linecap:round;stroke-linejoin:round"></line><line x1="417.42" y1="417.41" x2="417.42" y2="479.57" style="fill:none;stroke:#263238;stroke-linecap:round;stroke-linejoin:round"></line><line x1="420.37" y1="417.41" x2="420.37" y2="479.57" style="fill:none;stroke:#263238;stroke-linecap:round;stroke-linejoin:round"></line><line x1="423.33" y1="417.41" x2="423.33" y2="479.57" style="fill:none;stroke:#263238;stroke-linecap:round;stroke-linejoin:round"></line><line x1="426.29" y1="417.41" x2="426.29" y2="479.57" style="fill:none;stroke:#263238;stroke-linecap:round;stroke-linejoin:round"></line><line x1="429.24" y1="417.41" x2="429.24" y2="479.57" style="fill:none;stroke:#263238;stroke-linecap:round;stroke-linejoin:round"></line><line x1="432.2" y1="417.41" x2="432.2" y2="479.57" style="fill:none;stroke:#263238;stroke-linecap:round;stroke-linejoin:round"></line><line x1="435.16" y1="417.41" x2="435.16" y2="479.57" style="fill:none;stroke:#263238;stroke-linecap:round;stroke-linejoin:round"></line><line x1="438.11" y1="417.41" x2="438.11" y2="479.57" style="fill:none;stroke:#263238;stroke-linecap:round;stroke-linejoin:round"></line><line x1="441.07" y1="417.41" x2="441.07" y2="479.57" style="fill:none;stroke:#263238;stroke-linecap:round;stroke-linejoin:round"></line><line x1="444.02" y1="417.41" x2="444.02" y2="479.57" style="fill:none;stroke:#263238;stroke-linecap:round;stroke-linejoin:round"></line><line x1="446.98" y1="417.41" x2="446.98" y2="479.57" style="fill:none;stroke:#263238;stroke-linecap:round;stroke-linejoin:round"></line><line x1="449.94" y1="417.41" x2="449.94" y2="479.57" style="fill:none;stroke:#263238;stroke-linecap:round;stroke-linejoin:round"></line><line x1="452.89" y1="417.41" x2="452.89" y2="479.57" style="fill:none;stroke:#263238;stroke-linecap:round;stroke-linejoin:round"></line><line x1="455.85" y1="417.41" x2="455.85" y2="479.57" style="fill:none;stroke:#263238;stroke-linecap:round;stroke-linejoin:round"></line><path d="M399.61,417.41h51a38.91,38.91,0,1,0-51,0Z" style="fill:#c2c2c2;stroke:#263238;stroke-linecap:round;stroke-linejoin:round"></path></g><g id="freepik--magnifying-glass--inject-97"><ellipse cx="274.66" cy="127.86" rx="61.53" ry="92.29" transform="translate(-13.15 222.47) rotate(-43.16)" style="fill:#b5b5b5;stroke:#263238;stroke-linecap:round;stroke-linejoin:round"></ellipse><path d="M335.5,188.73a6.73,6.73,0,0,0,1.39,7.75L449.79,305.7a16.72,16.72,0,0,0,24.72-3h0a16.73,16.73,0,0,0-5.3-24.06L347.68,184.79S340.29,178.79,335.5,188.73Z" style="fill:#263238;stroke:#263238;stroke-linecap:round;stroke-linejoin:round"></path><ellipse cx="283.03" cy="118.29" rx="61.53" ry="92.29" transform="translate(-4.34 225.61) rotate(-43.16)" style="fill:#fff;stroke:#263238;stroke-linecap:round;stroke-linejoin:round"></ellipse><ellipse cx="283.03" cy="118.29" rx="56.39" ry="84.59" transform="translate(-4.34 225.61) rotate(-43.16)" style="fill:#b5b5b5;stroke:#263238;stroke-linecap:round;stroke-linejoin:round"></ellipse><path d="M339.22,181.45C351.38,158,342,120.88,314.6,91.67c-31.19-33.26-74.15-43.9-97.32-24.58-12.16,23.44-2.77,60.57,24.62,89.77C273.09,190.12,316.05,200.77,339.22,181.45Z" style="fill:#263238;stroke:#263238;stroke-linecap:round;stroke-linejoin:round"></path></g><g id="freepik--Lice--inject-97"><path d="M267.71,103.39l.15.24a7.83,7.83,0,0,0,2-.07l.58-.19a8.5,8.5,0,0,0-1.36-.16l-1.39,0A1.94,1.94,0,0,0,266,101c0-.33.09-.86.12-1.24a9.25,9.25,0,0,0-.05-1.36l-.24.56a7.72,7.72,0,0,0-.23,2,2.45,2.45,0,0,0-1.44.56,2.51,2.51,0,0,0-.85,1.33l-.25-.05a1.91,1.91,0,0,0,.32-.21l-.4-1.33s.25-.65.07-1a4.67,4.67,0,0,1-.31-1,2.2,2.2,0,0,1,.63-.74,1.61,1.61,0,0,0,.53-.46s-.76.22-1,.35a2.38,2.38,0,0,0-1,1.2,6.21,6.21,0,0,0,.53,1.71,7.28,7.28,0,0,1,0,1.32,1.37,1.37,0,0,0-.75.06l-.22.16a6,6,0,0,1-.52-1.1,6.48,6.48,0,0,0-.29-1.76,2.3,2.3,0,0,0-1.45-.62,8.83,8.83,0,0,0-1.09.15,1.69,1.69,0,0,0,.68.17,2.31,2.31,0,0,1,.89.38,4.62,4.62,0,0,1,.15,1c0,.38.5.85.5.85l.23,1.3a2.19,2.19,0,0,0-1,.42l-.15.17a4.88,4.88,0,0,1-.9-.48c-.26-.22-.9-1.08-1.31-1.21a2.35,2.35,0,0,0-1.52.39,9.82,9.82,0,0,0-.77.79,1.79,1.79,0,0,0,.64-.28,2.16,2.16,0,0,1,.94-.24,4.28,4.28,0,0,1,.72.69c.22.31.92.36.92.36l.84.77c-.13.3-.21.55-.21.55a4.23,4.23,0,0,0-1.36-.52,3.17,3.17,0,0,0-.66.19,4.87,4.87,0,0,0-1.46,0,1.77,1.77,0,0,0-.76.66,2.72,2.72,0,0,0-1.46.09,1.66,1.66,0,0,0-.7.75,1.25,1.25,0,0,0-1.08.29,6.93,6.93,0,0,0-.76,1.13.91.91,0,0,0-.89.42,2.7,2.7,0,0,0-.38,1.08s-.56.1-.56.9v1.32s-.9.52-.9,1a9,9,0,0,0,.09,1.08s-.56.61-.47,1.13.19.85.19.85a1.75,1.75,0,0,0-.23.94,4.3,4.3,0,0,0,.14.8s-.24,1.23.37,1.55a1.25,1.25,0,0,0,1.09.1,2.1,2.1,0,0,0,.8.38,1.43,1.43,0,0,0,1-.05,2.69,2.69,0,0,0,1,.38,3.64,3.64,0,0,0,1.18-.48,7.5,7.5,0,0,0,1.37.15,2,2,0,0,0,.84-.57,13.58,13.58,0,0,0,1.42-.14,4.2,4.2,0,0,0,.94-.38,1.61,1.61,0,0,0,1-.33,3.5,3.5,0,0,0,.94-1,2.69,2.69,0,0,0,.75-.38,5.08,5.08,0,0,0,.52-1,2.56,2.56,0,0,0,.85-.56,7.6,7.6,0,0,0,.42-1.51,2.54,2.54,0,0,0,.76-.94,2.14,2.14,0,0,0,0-.94A1.33,1.33,0,0,0,263,111v-.9l.15-.12.83,1s0,.7.34.93a4.77,4.77,0,0,1,.68.74,2.14,2.14,0,0,1-.27.93,1.65,1.65,0,0,0-.29.64,10.71,10.71,0,0,0,.8-.76,2.32,2.32,0,0,0,.43-1.51c-.12-.41-1-1.07-1.19-1.34a7.45,7.45,0,0,1-.58-1.22c.15-.14.28-.27.37-.37a1.66,1.66,0,0,0,.3-.5v0l1.36.27s.46.53.84.53a4.08,4.08,0,0,1,1,.17,2.08,2.08,0,0,1,.36.9,1.6,1.6,0,0,0,.16.68,9.82,9.82,0,0,0,.17-1.09,2.37,2.37,0,0,0-.58-1.46,6.57,6.57,0,0,0-1.76-.33,5.23,5.23,0,0,1-.91-.44,1.14,1.14,0,0,0,.25-.31,2.28,2.28,0,0,0,.14-.76h0a5.38,5.38,0,0,1,1,.06,6.94,6.94,0,0,0,1.7.57,2.38,2.38,0,0,0,1.22-1c.14-.29.38-1,.38-1a1.6,1.6,0,0,0-.47.52,2.15,2.15,0,0,1-.76.61,4.37,4.37,0,0,1-.94-.33c-.33-.19-1,0-1,0l-.8-.26a2.27,2.27,0,0,0,0-.52,2.36,2.36,0,0,0,.9-.47A2.44,2.44,0,0,0,267.71,103.39Z" style="fill:#E5DACF"></path><path d="M288.55,83.15l-.06.16a4.61,4.61,0,0,0,.81,1l.31.21a5.14,5.14,0,0,0-.44-.72l-.54-.66a1.22,1.22,0,0,0,.56-.77,1.2,1.2,0,0,0-.14-.89l.64-.41a5.07,5.07,0,0,0,.64-.54l-.36.1a5.13,5.13,0,0,0-1.06.65,1.56,1.56,0,0,0-1.78-.39s-.05-.09-.08-.14l.23.08.49-.7s.41-.13.5-.34a3,3,0,0,1,.34-.51,1.36,1.36,0,0,1,.6,0,1.09,1.09,0,0,0,.42.08s-.39-.28-.56-.37a1.4,1.4,0,0,0-1,0c-.23.13-.5.73-.63.9a3.43,3.43,0,0,1-.63.51.87.87,0,0,0-.31-.34l-.16-.05a3.69,3.69,0,0,1,.33-.66c.14-.17.66-.57.74-.82a1.39,1.39,0,0,0-.25-.93,5.84,5.84,0,0,0-.49-.47,1.1,1.1,0,0,0,.18.39,1.28,1.28,0,0,1,.15.58,2.69,2.69,0,0,1-.42.45c-.19.13-.22.56-.22.56l-.54.61a1.23,1.23,0,0,0-.58-.32h-.14a2.91,2.91,0,0,1-.11-.62,4.38,4.38,0,0,0,.09-1.1,1.45,1.45,0,0,0-.77-.58,5.44,5.44,0,0,0-.68-.08,1.19,1.19,0,0,0,.38.21,1.35,1.35,0,0,1,.48.36,3,3,0,0,1-.06.61c-.07.23.17.59.17.59l-.05.69a2.48,2.48,0,0,0-.34.11,3,3,0,0,0-.27-.86,1.72,1.72,0,0,0-.35-.24,2.87,2.87,0,0,0-.55-.71,1.11,1.11,0,0,0-.61-.11,1.59,1.59,0,0,0-.6-.67,1,1,0,0,0-.63-.06.8.8,0,0,0-.55-.42,4.24,4.24,0,0,0-.83.07.57.57,0,0,0-.55-.27,1.75,1.75,0,0,0-.67.23s-.26-.24-.64.07l-.64.5s-.59-.24-.82-.06a5.15,5.15,0,0,0-.49.46,1.06,1.06,0,0,0-.73.2c-.21.24-.33.41-.33.41a1.15,1.15,0,0,0-.55.25,2.81,2.81,0,0,0-.33.37s-.68.35-.61.77a.72.72,0,0,0,.37.56,1.26,1.26,0,0,0,.12.53.88.88,0,0,0,.41.49,1.72,1.72,0,0,0,.2.62,2.27,2.27,0,0,0,.67.39,4.51,4.51,0,0,0,.46.72,1.19,1.19,0,0,0,.59.19,7.45,7.45,0,0,0,.61.63,2.45,2.45,0,0,0,.54.31,1,1,0,0,0,.53.36,2.15,2.15,0,0,0,.86.06,1.73,1.73,0,0,0,.47.22,3.14,3.14,0,0,0,.68-.13,1.68,1.68,0,0,0,.59.2,4.87,4.87,0,0,0,.89-.37,1.54,1.54,0,0,0,.75,0,1.3,1.3,0,0,0,.47-.34.84.84,0,0,0,.39-.16l.43-.34.12,0-.15.76s-.32.28-.32.52a2.4,2.4,0,0,1-.1.6,1.26,1.26,0,0,1-.55.23,1.22,1.22,0,0,0-.42.1,5.22,5.22,0,0,0,.67.1,1.4,1.4,0,0,0,.9-.37,3.72,3.72,0,0,0,.19-1.08,3.94,3.94,0,0,1,.38-.74l.31,0a1.3,1.3,0,0,0,.36,0h0l.38.76s-.08.43.07.61a2.47,2.47,0,0,1,.29.54,1.39,1.39,0,0,1-.3.52,1,1,0,0,0-.27.33,6.77,6.77,0,0,0,.6-.32,1.53,1.53,0,0,0,.48-.84c0-.27-.42-.79-.51-1a3.36,3.36,0,0,1-.13-.61.49.49,0,0,0,.24,0,1.21,1.21,0,0,0,.42-.21h0a3.32,3.32,0,0,1,.35.49,3.82,3.82,0,0,0,.37,1,1.47,1.47,0,0,0,.94.21c.19,0,.65-.21.65-.21a1.15,1.15,0,0,0-.43,0,1.29,1.29,0,0,1-.59-.13,3.12,3.12,0,0,1-.2-.58c0-.23-.39-.46-.39-.46l-.18-.49A1.57,1.57,0,0,0,287,83a1.52,1.52,0,0,0,.56.26A1.56,1.56,0,0,0,288.55,83.15Z" style="fill:#E5DACF"></path><path d="M315.77,174.61l-.06.16a5,5,0,0,0,.81,1l.31.21a4.7,4.7,0,0,0-.44-.71l-.54-.67a1.24,1.24,0,0,0,.57-.77,1.17,1.17,0,0,0-.15-.88l.64-.41a6.32,6.32,0,0,0,.65-.55l-.37.1a4.69,4.69,0,0,0-1.06.66,1.51,1.51,0,0,0-1.78-.39l-.08-.15a1,1,0,0,0,.23.08l.49-.7s.41-.12.5-.34a3.24,3.24,0,0,1,.35-.51,1.32,1.32,0,0,1,.59,0,.94.94,0,0,0,.43.08s-.4-.28-.57-.37a1.52,1.52,0,0,0-1,0c-.23.13-.5.74-.63.9a4.38,4.38,0,0,1-.62.52c-.11-.17-.23-.32-.32-.34l-.16,0a3.8,3.8,0,0,1,.33-.67c.14-.16.67-.56.75-.81a1.54,1.54,0,0,0-.25-.94c-.13-.15-.49-.47-.49-.47a1,1,0,0,0,.17.4,1.28,1.28,0,0,1,.16.57,3.25,3.25,0,0,1-.42.45c-.19.14-.23.57-.23.57l-.54.6a1.36,1.36,0,0,0-.58-.32h-.14a2.91,2.91,0,0,1-.11-.62,3.89,3.89,0,0,0,.09-1.09,1.42,1.42,0,0,0-.77-.59c-.19,0-.68-.07-.68-.07a1.07,1.07,0,0,0,.38.2,1.36,1.36,0,0,1,.48.36,3.18,3.18,0,0,1-.06.62c-.07.22.17.58.17.58l-.05.7a3.24,3.24,0,0,0-.34.11,2.64,2.64,0,0,0-.27-.86,2.16,2.16,0,0,0-.34-.25,3,3,0,0,0-.56-.7,1,1,0,0,0-.6-.12,1.64,1.64,0,0,0-.61-.67,1,1,0,0,0-.63-.05s-.2-.4-.55-.42a4.62,4.62,0,0,0-.83.06.59.59,0,0,0-.55-.27,1.67,1.67,0,0,0-.66.23s-.26-.23-.65.07l-.64.5s-.59-.23-.82-.06a5.15,5.15,0,0,0-.49.46s-.51,0-.72.2-.34.42-.34.42a1.09,1.09,0,0,0-.55.24,2.52,2.52,0,0,0-.33.38s-.68.35-.61.77a.75.75,0,0,0,.37.56,1.29,1.29,0,0,0,.12.53.83.83,0,0,0,.42.48,1.64,1.64,0,0,0,.19.62,2.08,2.08,0,0,0,.68.39,3.9,3.9,0,0,0,.45.72,1.19,1.19,0,0,0,.59.19,6.16,6.16,0,0,0,.61.63,3,3,0,0,0,.54.32,1,1,0,0,0,.54.35,2.15,2.15,0,0,0,.86.06,1.62,1.62,0,0,0,.46.22,3.14,3.14,0,0,0,.68-.12,1.53,1.53,0,0,0,.6.19,4.5,4.5,0,0,0,.89-.37,1.5,1.5,0,0,0,.74,0,1.3,1.3,0,0,0,.47-.34.76.76,0,0,0,.39-.15l.44-.35.11,0-.15.76s-.32.29-.31.52a3,3,0,0,1-.1.61,1.39,1.39,0,0,1-.56.23,1,1,0,0,0-.42.1s.48.09.68.1a1.46,1.46,0,0,0,.89-.37,4.26,4.26,0,0,0,.2-1.08,4.37,4.37,0,0,1,.37-.75,2.14,2.14,0,0,0,.32,0,1,1,0,0,0,.35-.05v0l.38.76s-.08.42.07.6a2.69,2.69,0,0,1,.29.55,1.18,1.18,0,0,1-.3.51,1.12,1.12,0,0,0-.27.34s.44-.22.6-.33a1.45,1.45,0,0,0,.48-.84c0-.26-.42-.78-.51-1a3.18,3.18,0,0,1-.13-.61.54.54,0,0,0,.25,0,1.38,1.38,0,0,0,.41-.22h0a2.43,2.43,0,0,1,.35.5,4.26,4.26,0,0,0,.37,1,1.41,1.41,0,0,0,.94.22c.19,0,.65-.21.65-.21a1,1,0,0,0-.43,0,1.34,1.34,0,0,1-.58-.14,2.49,2.49,0,0,1-.2-.58c0-.23-.4-.46-.4-.46l-.18-.48a1.57,1.57,0,0,0,.26-.19,1.49,1.49,0,0,0,.57.26A1.54,1.54,0,0,0,315.77,174.61Z" style="fill:#E5DACF"></path><path d="M222.56,106.06l.11-.14a4.8,4.8,0,0,0-.47-1.16l-.24-.3a5.6,5.6,0,0,0,.2.82c.09.26.24.64.3.8a1.22,1.22,0,0,0-.77.56,1.23,1.23,0,0,0-.14.88l-.74.19a5.14,5.14,0,0,0-.78.32l.38,0a4.85,4.85,0,0,0,1.21-.29,1.56,1.56,0,0,0,1.58.92s0,.1,0,.16a1,1,0,0,0-.19-.14l-.68.51s-.43,0-.59.16a2.41,2.41,0,0,1-.48.38,1.32,1.32,0,0,1-.56-.2,1,1,0,0,0-.38-.21s.29.39.43.53a1.46,1.46,0,0,0,.91.33c.25-.06.7-.55.87-.67a5,5,0,0,1,.76-.29.86.86,0,0,0,.19.42l.14.1a3.75,3.75,0,0,1-.52.53c-.18.11-.81.33-1,.54a1.48,1.48,0,0,0,0,1c.07.18.31.6.31.6a1.08,1.08,0,0,0,0-.43,1.4,1.4,0,0,1,0-.6,2.73,2.73,0,0,1,.54-.29c.22-.07.39-.47.39-.47l.7-.41a1.4,1.4,0,0,0,.45.49l.13,0a3.13,3.13,0,0,1-.08.62c-.07.2-.44.75-.43,1a1.48,1.48,0,0,0,.55.79c.17.1.62.28.62.28a1,1,0,0,0-.3-.31,1.36,1.36,0,0,1-.34-.49,2.81,2.81,0,0,1,.25-.56,1,1,0,0,0,0-.61l.26-.65a3.5,3.5,0,0,0,.36,0,2.89,2.89,0,0,0,0,.9,2,2,0,0,0,.25.34,3.1,3.1,0,0,0,.31.85,1.11,1.11,0,0,0,.54.29,1.69,1.69,0,0,0,.36.83,1,1,0,0,0,.59.25s.07.44.39.56a4.26,4.26,0,0,0,.81.2.58.58,0,0,0,.44.43,1.64,1.64,0,0,0,.7,0s.18.3.64.13l.76-.27s.49.4.76.3a4.39,4.39,0,0,0,.61-.28,1,1,0,0,0,.75,0c.28-.17.45-.29.45-.29a1.11,1.11,0,0,0,.6-.07,2.5,2.5,0,0,0,.43-.25s.76-.12.82-.54a.75.75,0,0,0-.18-.65,1.27,1.27,0,0,0,0-.54.89.89,0,0,0-.24-.59,1.66,1.66,0,0,0,0-.65,2.23,2.23,0,0,0-.52-.58,4.82,4.82,0,0,0-.2-.82,1.2,1.2,0,0,0-.51-.37s-.24-.56-.38-.79a2.61,2.61,0,0,0-.42-.46,1,1,0,0,0-.4-.51,2.18,2.18,0,0,0-.79-.32,1.67,1.67,0,0,0-.38-.36,3.07,3.07,0,0,0-.68-.09,1.52,1.52,0,0,0-.51-.37,4.7,4.7,0,0,0-1,.07,1.5,1.5,0,0,0-.7-.23,1.29,1.29,0,0,0-.56.17.79.79,0,0,0-.42,0l-.51.19-.1-.06.37-.68s.4-.17.46-.4a2.73,2.73,0,0,1,.29-.54,1.29,1.29,0,0,1,.59,0,1.19,1.19,0,0,0,.43,0s-.42-.24-.6-.31a1.49,1.49,0,0,0-1,.08c-.21.15-.41.78-.52,1a3.73,3.73,0,0,1-.59.6l-.29-.14a1.55,1.55,0,0,0-.35-.07h0L226,106s.21-.38.12-.59a3,3,0,0,1-.11-.61,1.43,1.43,0,0,1,.45-.4,1,1,0,0,0,.36-.23,6.52,6.52,0,0,0-.67.13,1.43,1.43,0,0,0-.72.64,4.21,4.21,0,0,0,.18,1.09,2.47,2.47,0,0,1-.06.62.58.58,0,0,0-.23-.08,1.45,1.45,0,0,0-.47.08h0a3.12,3.12,0,0,1-.17-.57,4.07,4.07,0,0,0,0-1.1,1.43,1.43,0,0,0-.83-.5,4.89,4.89,0,0,0-.68,0,1.09,1.09,0,0,0,.4.16,1.31,1.31,0,0,1,.51.31,2.62,2.62,0,0,1,0,.61c0,.23.24.56.24.56l0,.52a1.6,1.6,0,0,0-.31.1,1.54,1.54,0,0,0-1.47-.62Z" style="fill:#E5DACF"></path><path d="M312.43,112.28l.11-.14a5,5,0,0,0-.47-1.16l-.24-.3a5.6,5.6,0,0,0,.2.82c.09.26.24.64.3.8a1.22,1.22,0,0,0-.77.56,1.23,1.23,0,0,0-.14.88l-.74.19a6.12,6.12,0,0,0-.77.32l.37,0a4.85,4.85,0,0,0,1.21-.29,1.56,1.56,0,0,0,1.58.92s0,.1,0,.16a1,1,0,0,0-.19-.14l-.68.51s-.43,0-.59.16a2.41,2.41,0,0,1-.48.38,1.37,1.37,0,0,1-.56-.2,1,1,0,0,0-.38-.21s.29.39.43.53a1.46,1.46,0,0,0,.91.33c.25-.06.7-.54.87-.67a5.4,5.4,0,0,1,.76-.29.86.86,0,0,0,.19.42l.14.1a3.28,3.28,0,0,1-.52.53c-.18.11-.81.33-1,.54a1.48,1.48,0,0,0,0,1c.07.18.31.6.31.6a.9.9,0,0,0,0-.43,1.4,1.4,0,0,1,0-.6,2.73,2.73,0,0,1,.54-.29c.22-.07.39-.47.39-.47l.7-.41a1.32,1.32,0,0,0,.45.49l.13,0a3.13,3.13,0,0,1-.08.62c-.07.2-.44.75-.43,1a1.48,1.48,0,0,0,.55.79c.17.1.62.28.62.28a1,1,0,0,0-.29-.31,1.3,1.3,0,0,1-.35-.49,2.81,2.81,0,0,1,.25-.56,1,1,0,0,0,0-.61l.26-.65a3.5,3.5,0,0,0,.36,0,2.89,2.89,0,0,0,0,.9,2,2,0,0,0,.25.34,3.1,3.1,0,0,0,.31.85,1.11,1.11,0,0,0,.54.29,1.69,1.69,0,0,0,.36.83,1,1,0,0,0,.59.25s.07.44.39.56a4.26,4.26,0,0,0,.81.2.58.58,0,0,0,.44.43,1.64,1.64,0,0,0,.7,0,.51.51,0,0,0,.64.14l.76-.28s.49.41.76.31a5.34,5.34,0,0,0,.61-.29,1,1,0,0,0,.75,0c.28-.17.45-.29.45-.29a1.17,1.17,0,0,0,.6-.06,3,3,0,0,0,.43-.26s.76-.12.82-.54a.75.75,0,0,0-.18-.65,1.27,1.27,0,0,0,.05-.54.89.89,0,0,0-.24-.59,1.66,1.66,0,0,0,0-.65c-.07-.22-.52-.58-.52-.58a4.82,4.82,0,0,0-.2-.82,1.2,1.2,0,0,0-.51-.37,6.84,6.84,0,0,0-.38-.79,2.61,2.61,0,0,0-.42-.46,1,1,0,0,0-.39-.51,2.27,2.27,0,0,0-.8-.32,1.67,1.67,0,0,0-.38-.36,3.07,3.07,0,0,0-.68-.09,1.52,1.52,0,0,0-.51-.37,4.7,4.7,0,0,0-1,.07,1.5,1.5,0,0,0-.7-.23,1.46,1.46,0,0,0-.56.17.79.79,0,0,0-.42,0l-.51.19-.1-.06.37-.68s.4-.17.46-.4a2.73,2.73,0,0,1,.29-.54,1.29,1.29,0,0,1,.59,0,1.19,1.19,0,0,0,.43,0s-.42-.24-.6-.31a1.5,1.5,0,0,0-1,.08c-.21.15-.41.78-.52,1a4.11,4.11,0,0,1-.59.59l-.29-.14A1.12,1.12,0,0,0,316,113h0l-.13-.85s.21-.37.12-.59a3,3,0,0,1-.11-.61,1.43,1.43,0,0,1,.45-.4,1,1,0,0,0,.36-.23,6.52,6.52,0,0,0-.67.13,1.43,1.43,0,0,0-.72.64,4.21,4.21,0,0,0,.18,1.09,2.47,2.47,0,0,1-.06.62.58.58,0,0,0-.23-.08,1.45,1.45,0,0,0-.47.08h0a3.12,3.12,0,0,1-.17-.57,4.08,4.08,0,0,0,0-1.1,1.43,1.43,0,0,0-.83-.5c-.19,0-.68,0-.68,0a1.09,1.09,0,0,0,.4.16,1.31,1.31,0,0,1,.51.31,2.62,2.62,0,0,1,0,.61c0,.23.24.56.24.56l0,.52a1.6,1.6,0,0,0-.31.1,1.55,1.55,0,0,0-.46-.42A1.53,1.53,0,0,0,312.43,112.28Z" style="fill:#E5DACF"></path><path d="M281.38,151l.15.24a7.83,7.83,0,0,0,2-.07l.58-.19a8.5,8.5,0,0,0-1.36-.16l-1.39,0a2,2,0,0,0-.42-1.49,1.94,1.94,0,0,0-1.27-.7c0-.32.09-.86.12-1.23a9.33,9.33,0,0,0-.05-1.37l-.23.57a7.36,7.36,0,0,0-.24,2,2.46,2.46,0,0,0-2.28,1.89l-.26-.05a3.13,3.13,0,0,0,.32-.22l-.4-1.32s.25-.66.07-1a4.67,4.67,0,0,1-.31-.95,2.2,2.2,0,0,1,.63-.74,1.61,1.61,0,0,0,.53-.46s-.76.22-1,.35a2.37,2.37,0,0,0-1,1.21,6.25,6.25,0,0,0,.53,1.7,6.47,6.47,0,0,1,0,1.32,1.37,1.37,0,0,0-.75.06l-.22.16a6,6,0,0,1-.52-1.1,6.48,6.48,0,0,0-.29-1.76,2.35,2.35,0,0,0-1.45-.62c-.32,0-1.09.15-1.09.15a1.69,1.69,0,0,0,.68.17,2.23,2.23,0,0,1,.89.38,4.62,4.62,0,0,1,.15,1c0,.38.5.85.5.85l.23,1.3a2.19,2.19,0,0,0-1,.42l-.15.17a5.63,5.63,0,0,1-.9-.47c-.26-.23-.9-1.09-1.31-1.22a2.41,2.41,0,0,0-1.52.39,9.82,9.82,0,0,0-.77.79,1.6,1.6,0,0,0,.64-.28,2.16,2.16,0,0,1,.94-.24,4.28,4.28,0,0,1,.72.69c.22.31.92.37.92.37l.84.76c-.13.3-.21.55-.21.55a4.23,4.23,0,0,0-1.36-.52,3.17,3.17,0,0,0-.66.19,4.87,4.87,0,0,0-1.46,0,1.72,1.72,0,0,0-.75.66,2.72,2.72,0,0,0-1.46.09,1.7,1.7,0,0,0-.71.76,1.23,1.23,0,0,0-1.08.28,6.93,6.93,0,0,0-.76,1.13.91.91,0,0,0-.89.42,2.72,2.72,0,0,0-.38,1.09s-.56.09-.56.89v1.32s-.9.52-.9,1a8.11,8.11,0,0,0,.1,1.08s-.57.61-.48,1.13.19.85.19.85a1.75,1.75,0,0,0-.23.94,4.3,4.3,0,0,0,.14.8s-.24,1.23.38,1.56a1.21,1.21,0,0,0,1.08.09,2.1,2.1,0,0,0,.8.38,1.37,1.37,0,0,0,1,0,2.69,2.69,0,0,0,1,.38,3.69,3.69,0,0,0,1.18-.47A7.74,7.74,0,0,0,268,167a2,2,0,0,0,.84-.57,11.22,11.22,0,0,0,1.42-.14,4.2,4.2,0,0,0,.94-.38,1.61,1.61,0,0,0,1-.33,3.5,3.5,0,0,0,.94-1,2.56,2.56,0,0,0,.75-.38,5.08,5.08,0,0,0,.52-1,2.56,2.56,0,0,0,.85-.56,7.6,7.6,0,0,0,.42-1.51,2.44,2.44,0,0,0,.76-.94,2.14,2.14,0,0,0,0-.94,1.33,1.33,0,0,0,.19-.66v-.9l.15-.12.83.95s0,.7.34.93a4.28,4.28,0,0,1,.68.74,2.14,2.14,0,0,1-.27.93,1.71,1.71,0,0,0-.29.64,8.91,8.91,0,0,0,.8-.76,2.32,2.32,0,0,0,.43-1.51c-.12-.41-1-1.07-1.19-1.34a8.37,8.37,0,0,1-.58-1.22,4.25,4.25,0,0,0,.37-.37,1.66,1.66,0,0,0,.3-.5v0l1.36.28s.46.52.84.52a4.08,4.08,0,0,1,1,.17,2.08,2.08,0,0,1,.36.9,1.6,1.6,0,0,0,.16.68s.16-.77.18-1.09a2.44,2.44,0,0,0-.59-1.46,7,7,0,0,0-1.76-.33,5.23,5.23,0,0,1-.91-.44,1,1,0,0,0,.25-.31,2.28,2.28,0,0,0,.14-.76h0a5.38,5.38,0,0,1,1,.06,6.54,6.54,0,0,0,1.7.57,2.38,2.38,0,0,0,1.22-1,11,11,0,0,0,.38-1,1.74,1.74,0,0,0-.47.52,2.15,2.15,0,0,1-.76.61,4.37,4.37,0,0,1-.94-.33c-.33-.19-1,.05-1,.05l-.8-.26a2.27,2.27,0,0,0,0-.52,2.36,2.36,0,0,0,.9-.47A2.39,2.39,0,0,0,281.38,151Z" style="fill:#E5DACF"></path><path d="M294.21,121.59l.27-.08a7.78,7.78,0,0,0,.5-2l0-.62a9.13,9.13,0,0,0-.53,1.26l-.37,1.34a2,2,0,0,0-2.58,1l-1.15-.45a8.53,8.53,0,0,0-1.32-.33l.47.38a7.91,7.91,0,0,0,1.87.79,2.49,2.49,0,0,0,1.18,2.72,1.61,1.61,0,0,0-.12.23,2,2,0,0,0-.12-.37h-1.38s-.56-.42-.93-.34a4.48,4.48,0,0,1-1,0,2.16,2.16,0,0,1-.53-.81,1.6,1.6,0,0,0-.3-.63,10.77,10.77,0,0,0,.05,1.1,2.35,2.35,0,0,0,.87,1.31,6.67,6.67,0,0,0,1.79,0,7,7,0,0,1,1.27.34,1.4,1.4,0,0,0-.15.74l.09.26a6.31,6.31,0,0,1-1.2.19,6.81,6.81,0,0,0-1.77-.21,2.31,2.31,0,0,0-1,1.22,10.88,10.88,0,0,0-.16,1.09,1.69,1.69,0,0,0,.36-.6,2.07,2.07,0,0,1,.61-.75,4.26,4.26,0,0,1,1,.13c.36.11,1-.25,1-.25l1.31.14a2.14,2.14,0,0,0,.13,1.08l.11.19a5,5,0,0,1-.7.73c-.29.19-1.29.57-1.53.92a2.36,2.36,0,0,0-.05,1.57,9.54,9.54,0,0,0,.54,1,1.8,1.8,0,0,0-.08-.7,2.14,2.14,0,0,1,0-1,4.81,4.81,0,0,1,.86-.5c.36-.13.61-.78.61-.78l1-.6a5,5,0,0,0,.47.35s-.83.84-.88,1.17a3.47,3.47,0,0,0,0,.69,5,5,0,0,0-.41,1.4,1.79,1.79,0,0,0,.43.91,2.66,2.66,0,0,0-.32,1.43,1.66,1.66,0,0,0,.53.88,1.28,1.28,0,0,0,0,1.12,6.93,6.93,0,0,0,.88,1,.93.93,0,0,0,.15,1,2.68,2.68,0,0,0,.94.66s-.07.57.7.79l1.27.37s.25,1,.7,1.13a7.68,7.68,0,0,0,1.07.22s.43.71.95.76a8.4,8.4,0,0,0,.87.06,1.78,1.78,0,0,0,.84.49,5.18,5.18,0,0,0,.8.08s1.11.57,1.6.07a1.2,1.2,0,0,0,.39-1,2.06,2.06,0,0,0,.59-.66,1.41,1.41,0,0,0,.24-1,2.78,2.78,0,0,0,.64-.85,3.78,3.78,0,0,0-.13-1.26,7.14,7.14,0,0,0,.52-1.27,1.91,1.91,0,0,0-.31-1,13.1,13.1,0,0,0,.26-1.4,4.3,4.3,0,0,0-.1-1,1.65,1.65,0,0,0,0-1,3.56,3.56,0,0,0-.73-1.19,2.71,2.71,0,0,0-.16-.83,5,5,0,0,0-.8-.78,2.54,2.54,0,0,0-.31-1,7.52,7.52,0,0,0-1.33-.82,2.49,2.49,0,0,0-.69-1,2.21,2.21,0,0,0-.9-.31,1.21,1.21,0,0,0-.58-.36l-.86-.25a1.1,1.1,0,0,0-.07-.17l1.14-.53s.69.15,1-.08a4.38,4.38,0,0,1,.9-.44,2.19,2.19,0,0,1,.82.51,1.67,1.67,0,0,0,.53.46s-.33-.72-.5-1a2.36,2.36,0,0,0-1.34-.83c-.42,0-1.3.63-1.61.77a7.56,7.56,0,0,1-1.34.21c-.09-.18-.18-.34-.25-.46a1.77,1.77,0,0,0-.39-.42h0l.64-1.23s.63-.29.73-.66a4.25,4.25,0,0,1,.44-.9,2.18,2.18,0,0,1,1-.09,1.66,1.66,0,0,0,.7,0,10,10,0,0,0-1-.47,2.41,2.41,0,0,0-1.57.16,6.89,6.89,0,0,0-.81,1.6,5.19,5.19,0,0,1-.67.75,1.07,1.07,0,0,0-.23-.33,2.13,2.13,0,0,0-.69-.34v0a5,5,0,0,1,.32-.92c.19-.29.94-1,1-1.47a2.37,2.37,0,0,0-.61-1.45,9.2,9.2,0,0,0-.89-.65,1.67,1.67,0,0,0,.36.59,2.08,2.08,0,0,1,.38.9,4,4,0,0,1-.58.81c-.27.26-.23,1-.23,1l-.46.7a3,3,0,0,0-.5-.17,2.54,2.54,0,0,0-.2-1A2.48,2.48,0,0,0,294.21,121.59Z" style="fill:#E5DACF"></path><path d="M236.23,67.38l.27-.08a7.77,7.77,0,0,0,.5-2l0-.61a8,8,0,0,0-.53,1.26l-.37,1.34a2,2,0,0,0-1.55,0,2,2,0,0,0-1,1l-1.15-.45a8.54,8.54,0,0,0-1.33-.33l.48.38a7.74,7.74,0,0,0,1.87.79,2.49,2.49,0,0,0,1.18,2.72,1.61,1.61,0,0,0-.12.23,2.61,2.61,0,0,0-.12-.37h-1.38s-.56-.42-.93-.34a4.48,4.48,0,0,1-1,0,2.27,2.27,0,0,1-.54-.81,1.66,1.66,0,0,0-.29-.63,10.77,10.77,0,0,0,.05,1.1,2.35,2.35,0,0,0,.87,1.31,6.67,6.67,0,0,0,1.79,0,6.27,6.27,0,0,1,1.27.34A1.39,1.39,0,0,0,234,73l.09.26a6.31,6.31,0,0,1-1.2.19,6.81,6.81,0,0,0-1.77-.21,2.31,2.31,0,0,0-1,1.22,10.88,10.88,0,0,0-.16,1.09,1.59,1.59,0,0,0,.35-.6,2.24,2.24,0,0,1,.62-.76,4.5,4.5,0,0,1,1,.14c.36.11,1-.25,1-.25l1.31.14a2.19,2.19,0,0,0,.12,1.07,2.12,2.12,0,0,0,.12.2,5,5,0,0,1-.7.73c-.29.19-1.3.57-1.54.92a2.36,2.36,0,0,0,0,1.57,10.28,10.28,0,0,0,.54,1,1.66,1.66,0,0,0-.09-.69,2.24,2.24,0,0,1,0-1,4.44,4.44,0,0,1,.86-.5c.36-.13.61-.78.61-.78l1-.6a5,5,0,0,0,.47.35s-.83.84-.88,1.17a2.78,2.78,0,0,0,0,.69,4.67,4.67,0,0,0-.41,1.4,1.84,1.84,0,0,0,.43.91,2.65,2.65,0,0,0-.32,1.42,1.66,1.66,0,0,0,.53.89,1.24,1.24,0,0,0,0,1.12,7.13,7.13,0,0,0,.87,1,1,1,0,0,0,.16,1,2.68,2.68,0,0,0,.94.66s-.07.57.7.79l1.27.37s.24,1,.7,1.13a8.7,8.7,0,0,0,1.06.21s.43.72,1,.77a8.31,8.31,0,0,0,.86.06,1.77,1.77,0,0,0,.84.48,4.77,4.77,0,0,0,.81.09s1.11.57,1.6.07a1.2,1.2,0,0,0,.39-1,2.2,2.2,0,0,0,.59-.67,1.38,1.38,0,0,0,.24-1,2.78,2.78,0,0,0,.64-.85,3.78,3.78,0,0,0-.13-1.26,7.14,7.14,0,0,0,.52-1.27,2,2,0,0,0-.31-1,12.76,12.76,0,0,0,.26-1.39,5,5,0,0,0-.1-1,1.65,1.65,0,0,0,0-1,3.61,3.61,0,0,0-.74-1.2,2.56,2.56,0,0,0-.15-.82,5,5,0,0,0-.81-.78,2.47,2.47,0,0,0-.3-1,7.52,7.52,0,0,0-1.33-.82,2.45,2.45,0,0,0-.7-1,2.14,2.14,0,0,0-.89-.31,1.28,1.28,0,0,0-.58-.36l-.86-.25-.07-.18,1.14-.53s.69.16,1-.07a4.15,4.15,0,0,1,.89-.44,2.2,2.2,0,0,1,.83.51,1.56,1.56,0,0,0,.53.46s-.33-.72-.5-1a2.31,2.31,0,0,0-1.34-.83c-.43,0-1.3.63-1.61.76a6.91,6.91,0,0,1-1.34.22c-.09-.18-.18-.34-.25-.46a1.61,1.61,0,0,0-.4-.42h0l.64-1.23s.64-.3.74-.66a4.25,4.25,0,0,1,.44-.9,2,2,0,0,1,1-.09,1.66,1.66,0,0,0,.7,0,10.48,10.48,0,0,0-1-.47,2.38,2.38,0,0,0-1.56.16c-.34.27-.64,1.3-.81,1.6a4.78,4.78,0,0,1-.68.75.81.81,0,0,0-.23-.33,2.15,2.15,0,0,0-.68-.35h0a4.33,4.33,0,0,1,.33-.92c.18-.29.94-1,1-1.47a2.42,2.42,0,0,0-.61-1.46c-.24-.21-.89-.65-.89-.65a1.67,1.67,0,0,0,.36.6,2.08,2.08,0,0,1,.38.9,4.89,4.89,0,0,1-.58.81c-.27.26-.23,1-.23,1l-.47.7a2.58,2.58,0,0,0-.49-.17,2.5,2.5,0,0,0-.2-1A2.44,2.44,0,0,0,236.23,67.38Z" style="fill:#E5DACF"></path></g></svg>
